<?xml version="1.0" standalone="no"?>
<!DOCTYPE svg PUBLIC "-//W3C//DTD SVG 20010904//EN"
 "http://www.w3.org/TR/2001/REC-SVG-20010904/DTD/svg10.dtd">
<svg version="1.0" xmlns="http://www.w3.org/2000/svg"
 width="2835.000000pt" height="3050.000000pt" viewBox="0 0 2835.000000 3050.000000"
 preserveAspectRatio="xMidYMid meet">

<g transform="translate(0.000000,3050.000000) scale(0.100000,-0.100000)"
fill="#000000" stroke="none">
<path d="M12174 30300 c-23 -5 -124 -31 -225 -59 -257 -69 -344 -92 -941 -245
-938 -241 -1113 -298 -1178 -387 -118 -163 -136 -503 -70 -1294 11 -126 20
-255 20 -286 l0 -56 -82 -31 c-284 -108 -967 -491 -1441 -809 -261 -175 -275
-183 -317 -183 -42 0 -50 4 -347 202 -430 285 -673 440 -759 484 -156 78 -279
83 -414 18 -70 -34 -101 -63 -467 -427 l-392 -390 -92 84 c-150 136 -1043 981
-1051 993 -4 7 3 52 14 101 28 122 30 301 4 405 -65 254 -239 481 -447 584
-140 69 -225 88 -394 89 -160 1 -265 -20 -393 -79 -234 -107 -403 -321 -468
-590 -25 -103 -23 -285 5 -398 64 -265 245 -489 477 -592 127 -56 196 -69 374
-68 153 0 171 2 247 27 76 26 85 27 110 13 29 -16 132 -113 757 -711 l365
-349 -177 -181 c-98 -99 -196 -209 -220 -244 -94 -142 -94 -251 2 -441 52
-102 501 -809 637 -1003 58 -82 68 -101 59 -117 -6 -11 -13 -20 -17 -20 -3 0
-103 94 -222 208 -267 256 -693 660 -1121 1062 -178 168 -475 449 -660 625
-525 501 -863 821 -1010 955 -74 68 -141 129 -149 136 -11 10 -10 31 10 136
28 148 30 292 5 393 -24 102 -114 277 -186 362 -106 127 -273 233 -440 279
-102 29 -359 27 -463 -4 -392 -113 -658 -483 -634 -882 23 -379 265 -688 622
-796 80 -24 107 -27 235 -28 127 0 158 3 247 27 56 15 109 27 117 27 9 0 742
-688 1629 -1530 1339 -1271 1617 -1530 1640 -1530 15 0 27 -2 27 -4 0 -2 -40
-68 -89 -147 -207 -337 -380 -648 -471 -849 -29 -63 -54 -117 -55 -118 -4 -5
-829 763 -882 821 -24 26 -43 51 -43 57 0 6 10 64 22 128 13 72 21 157 21 222
0 94 -3 116 -35 207 -54 156 -107 242 -223 358 -187 187 -394 266 -655 252
-233 -13 -432 -106 -596 -280 -247 -259 -303 -643 -143 -977 115 -242 317
-400 582 -454 138 -29 369 -16 522 29 17 5 69 -40 268 -226 136 -127 245 -234
243 -236 -2 -3 -80 1 -173 7 -215 16 -420 9 -488 -15 -105 -39 -179 -149 -249
-375 -48 -155 -182 -652 -208 -770 -24 -112 -20 -219 11 -343 39 -150 357
-969 519 -1333 501 -1129 1123 -2126 1883 -3015 213 -250 376 -426 639 -693
704 -713 1398 -1277 2200 -1788 230 -147 519 -323 542 -330 10 -4 -2 -64 -46
-242 l-59 -238 59 -58 c33 -31 276 -263 541 -514 266 -252 483 -460 483 -462
0 -18 -555 234 -925 421 -997 503 -1900 1116 -2680 1819 -485 437 -960 904
-1259 1240 -285 321 -660 784 -779 961 -33 50 -61 91 -62 93 -1 1 -49 -27
-106 -63 -135 -85 -355 -196 -658 -335 -293 -133 -409 -199 -501 -287 -84 -79
-125 -155 -141 -264 -17 -109 -2 -205 76 -484 75 -269 171 -642 314 -1225 161
-652 219 -788 369 -864 99 -50 262 -57 682 -31 129 8 381 18 560 21 l325 7 34
-89 c39 -103 231 -484 345 -689 142 -252 316 -535 461 -749 78 -116 157 -237
175 -268 l32 -58 -60 -82 c-211 -293 -586 -902 -675 -1098 -60 -133 -43 -271
51 -408 57 -84 1541 -1560 1647 -1640 90 -67 161 -94 245 -95 138 0 264 64
714 363 188 125 405 266 483 314 l141 87 44 -22 c23 -12 192 -115 373 -229
688 -431 1028 -623 1315 -740 l115 -48 -1 -218 c0 -121 -9 -334 -20 -474 -25
-338 -26 -691 -2 -777 46 -166 127 -240 335 -309 43 -14 249 -68 458 -121 371
-94 383 -97 495 -97 87 0 137 6 205 23 165 42 948 345 1308 505 l57 26 0 -114
0 -113 -57 -38 c-100 -65 -214 -190 -261 -282 -128 -258 -79 -549 128 -753
123 -120 253 -178 421 -187 297 -16 561 157 664 437 37 100 45 252 20 364 -21
96 -82 219 -139 283 -25 27 -92 81 -149 119 l-105 69 -7 150 c-4 82 -5 185 -3
228 l3 78 200 106 c110 58 278 150 374 204 96 55 176 97 179 95 6 -6 53 -2573
50 -2725 l-3 -124 -75 -41 c-114 -63 -211 -161 -262 -264 -39 -78 -43 -91 -46
-183 -4 -79 0 -111 17 -166 52 -173 207 -321 404 -387 37 -12 90 -16 236 -16
160 0 196 3 245 20 103 35 179 82 257 160 164 163 204 365 112 570 -49 109
-137 194 -279 270 l-81 43 -7 361 c-3 199 -11 577 -16 841 -5 264 -15 752 -21
1085 -6 333 -14 667 -18 742 l-6 137 155 105 c1331 899 2481 2061 3398 3433
82 122 85 126 1103 1113 562 545 1023 989 1026 987 11 -11 -320 -797 -336
-797 -4 0 -19 25 -34 56 l-27 55 -39 -33 c-81 -70 -940 -862 -938 -865 2 -1
155 16 341 38 187 22 341 37 343 35 5 -5 -131 -254 -255 -466 -824 -1407
-1984 -2736 -3315 -3798 -102 -81 -211 -165 -241 -186 -54 -37 -57 -38 -81
-22 -33 22 -35 21 -35 -18 0 -28 -7 -39 -32 -57 -18 -12 -35 -24 -36 -25 -2
-1 11 -24 30 -51 l33 -48 2 -165 c2 -91 7 -413 13 -716 6 -303 8 -563 5 -577
-5 -18 -24 -36 -63 -58 -127 -72 -250 -226 -298 -373 -34 -102 -38 -254 -10
-356 63 -232 254 -422 482 -480 228 -59 447 4 619 175 141 141 200 274 199
450 -2 254 -112 452 -323 583 -42 25 -79 51 -83 57 -4 5 -8 93 -8 195 l0 185
32 -40 c123 -153 273 -212 471 -187 115 15 1346 331 1819 468 437 126 516 158
565 231 38 58 67 140 85 248 22 131 15 527 -16 905 -14 179 -26 359 -26 400
l0 75 88 34 c128 49 422 194 617 303 94 52 381 224 640 382 258 159 479 293
491 298 31 14 59 -2 507 -300 413 -274 558 -360 692 -410 82 -31 97 -34 170
-30 95 6 175 34 243 86 66 51 1578 1574 1629 1642 93 123 118 215 89 327 -32
127 -160 347 -490 841 -174 262 -272 433 -259 455 4 7 100 159 214 338 402
633 604 989 779 1382 l44 97 200 0 c231 0 513 -13 801 -36 425 -34 531 -23
616 65 83 86 116 176 270 731 151 546 151 541 -56 1095 -224 599 -375 954
-610 1430 -574 1162 -1256 2131 -2219 3149 -124 131 -454 442 -691 652 -179
157 -597 496 -808 654 -48 36 -89 74 -91 85 -6 23 -64 1168 -60 1173 4 6 269
-174 472 -321 955 -688 1867 -1547 2673 -2517 173 -208 408 -521 421 -561 2
-7 27 6 58 29 83 63 292 175 630 338 458 220 528 260 622 363 116 125 133 263
63 526 -13 50 -79 302 -145 560 -253 980 -389 1454 -456 1587 -26 50 -78 93
-153 122 -101 39 -180 49 -460 55 l-274 6 312 293 312 293 92 -22 c137 -33
332 -37 462 -10 313 64 552 299 636 626 31 123 32 313 0 430 -56 209 -186 390
-364 508 -330 219 -782 187 -1063 -76 -124 -116 -200 -234 -255 -397 -28 -83
-32 -108 -32 -200 0 -66 8 -151 22 -228 22 -116 22 -124 6 -148 -35 -54 -988
-999 -993 -985 -2 8 -55 116 -117 240 -162 324 -460 839 -624 1076 -148 216
-193 286 -188 291 3 3 22 1 42 -6 33 -11 39 -10 70 14 33 26 2753 2742 3003
2998 l122 126 123 -26 c228 -48 396 -34 574 48 104 48 161 88 247 169 114 110
194 246 237 406 31 114 31 326 0 439 -128 470 -597 742 -1072 621 -141 -36
-325 -146 -419 -252 -196 -220 -261 -490 -194 -804 l26 -122 -1033 -1033
-1033 -1033 -27 48 c-69 128 -173 247 -477 548 l-264 263 395 407 c551 570
619 635 648 629 270 -61 411 -67 549 -22 167 55 280 126 396 249 274 288 310
726 89 1068 -218 337 -622 476 -1010 348 -138 -46 -227 -101 -330 -204 -119
-119 -176 -218 -222 -386 -26 -92 -25 -363 0 -472 l19 -78 -33 -37 c-17 -20
-250 -257 -517 -525 l-485 -488 -226 224 c-206 204 -233 227 -306 263 -76 38
-83 39 -180 39 -99 0 -101 0 -199 -48 -57 -27 -261 -156 -480 -301 -385 -256
-471 -309 -582 -359 -112 -49 -88 -60 -564 246 -513 329 -517 332 -950 546
-190 94 -356 180 -370 190 l-25 20 1 228 c0 133 10 352 23 523 27 347 31 599
12 685 -29 134 -99 223 -214 275 -77 34 -213 74 -472 139 -110 27 -267 68
-350 91 -83 22 -186 43 -230 47 -140 10 -182 -2 -865 -254 -1099 -404 -2232
-1033 -3262 -1809 -1071 -808 -2248 -2089 -2929 -3189 -67 -108 -91 -139 -105
-137 -34 6 -928 212 -930 215 -5 4 213 349 371 588 449 681 835 1181 1305
1689 549 594 1239 1221 1830 1662 85 63 163 125 174 136 18 21 15 28 -297 634
-291 565 -320 618 -374 674 -35 36 -83 72 -118 90 -54 26 -71 29 -165 31 -58
1 -123 -2 -146 -7z m12541 -1385 c78 -20 155 -74 199 -138 33 -49 66 -144 66
-192 0 -48 -33 -143 -66 -192 -68 -100 -204 -163 -320 -148 -68 8 -164 56
-203 101 -17 19 -43 58 -59 87 -24 47 -27 62 -27 157 0 90 3 111 23 147 48 91
130 153 237 179 68 17 81 16 150 -1z m-21021 -335 c70 -34 121 -86 157 -165
27 -57 32 -80 33 -144 1 -67 -3 -84 -32 -143 -104 -212 -403 -261 -552 -91
-70 79 -108 208 -90 303 31 166 179 275 360 267 52 -3 90 -11 124 -27z m23403
-46 c113 -54 185 -176 185 -314 1 -167 -89 -284 -252 -326 -166 -42 -315 28
-389 185 -22 48 -26 69 -26 151 0 80 4 103 25 145 80 162 294 237 457 159z
m-25677 -581 c74 -24 149 -95 186 -175 24 -53 28 -76 29 -148 0 -73 -4 -93
-28 -142 -33 -67 -90 -121 -166 -157 -48 -22 -69 -26 -151 -26 -80 0 -103 4
-144 24 -112 55 -177 160 -184 298 -5 93 8 143 57 210 80 111 258 162 401 116z
m13575 -3373 c539 -22 1026 -73 1560 -165 313 -54 822 -161 813 -171 -3 -2
-103 -27 -224 -55 -120 -28 -224 -56 -231 -63 -6 -6 -166 -303 -354 -661 -188
-357 -345 -654 -350 -659 -6 -7 -3848 -58 -3857 -51 -6 5 -702 1537 -702 1545
0 12 9 14 205 54 612 124 1248 200 1895 225 303 12 959 12 1245 1z m-5585
-580 c888 -204 1622 -374 1630 -379 16 -9 27 -32 470 -1003 l313 -688 78 0
c45 0 79 -4 79 -10 0 -5 -7 -28 -16 -50 -9 -23 -14 -43 -11 -46 3 -3 99 -33
214 -66 114 -33 216 -68 225 -77 9 -9 279 -379 600 -824 l583 -807 295 -1856
c162 -1020 296 -1851 297 -1847 2 4 172 847 378 1873 206 1026 379 1874 384
1885 5 11 297 403 650 870 l641 850 222 77 c123 42 232 77 243 77 17 1 90 133
400 720 l379 720 81 19 c287 71 3247 764 3250 761 3 -3 111 -2080 187 -3597
l3 -53 -1057 -431 -1057 -431 263 -326 c1157 -1436 1386 -1725 1379 -1731 -4
-4 -739 -452 -1633 -995 -894 -543 -1632 -995 -1641 -1004 -10 -9 -477 -995
-1040 -2191 -562 -1196 -1027 -2178 -1033 -2182 -6 -4 -422 -7 -925 -5 l-913
2 -947 2315 c-521 1274 -950 2320 -953 2325 -3 6 -778 368 -1722 805 -943 437
-1714 798 -1713 801 1 4 421 487 932 1075 512 587 931 1073 933 1079 1 5 -539
221 -1200 479 -662 258 -1206 472 -1209 475 -4 4 301 3704 311 3769 0 2 8 1
18 -2 9 -3 744 -172 1632 -376z m16871 286 c31 -14 76 -47 99 -72 101 -109
124 -246 63 -376 -36 -76 -92 -136 -161 -169 -38 -19 -63 -24 -137 -24 -78 0
-98 4 -153 29 -280 129 -255 522 41 628 73 26 174 20 248 -16z m-23505 -141
c65 -32 127 -93 162 -160 24 -44 27 -61 27 -150 0 -89 -3 -106 -27 -151 -33
-63 -94 -118 -167 -153 -48 -22 -70 -26 -146 -26 -79 0 -97 4 -142 28 -72 37
-120 88 -156 166 -26 55 -31 78 -32 141 0 65 4 84 33 142 46 94 129 164 227
189 55 15 164 2 221 -26z m4092 -520 c2 -1 -62 -785 -142 -1741 -80 -957 -147
-1757 -148 -1778 l-3 -40 950 -371 c523 -204 949 -374 948 -379 -1 -4 -365
-426 -810 -937 -634 -729 -810 -925 -815 -911 -4 9 -28 103 -52 207 -165 702
-277 1432 -327 2120 -27 384 -27 1259 1 1685 50 774 116 1289 220 1710 32 130
79 389 80 444 0 7 90 -1 98 -9z m14019 -4126 c22 -184 52 -538 63 -744 5 -110
12 -236 15 -279 3 -49 1 -76 -5 -70 -19 19 -750 929 -750 934 0 8 644 269 655
266 6 -1 16 -50 22 -107z m-13057 -2834 c459 -213 851 -395 871 -406 l36 -18
-267 -1075 c-147 -591 -270 -1080 -272 -1087 -10 -30 -251 444 -458 901 -274
604 -449 1037 -590 1460 -70 211 -190 600 -190 617 0 10 5 11 18 4 9 -5 393
-183 852 -396z m13085 68 c-85 -891 -254 -1770 -499 -2598 -79 -268 -92 -305
-99 -285 -3 8 -128 543 -278 1189 -218 942 -269 1176 -258 1182 8 4 268 163
579 352 311 190 566 341 568 336 2 -5 -4 -84 -13 -176z m-10768 -1150 l642
-298 107 -260 c366 -888 1252 -3060 1250 -3062 -1 -1 -316 5 -701 13 l-698 15
-67 62 c-37 34 -441 417 -899 852 -527 500 -831 795 -828 805 2 8 125 500 273
1093 148 592 271 1077 274 1077 3 0 294 -134 647 -297z m9119 -844 l235 -1013
-103 -103 c-57 -56 -465 -453 -908 -883 l-805 -781 -630 6 c-346 4 -631 8
-633 10 -1 1 324 694 722 1541 l724 1539 578 352 c318 194 579 351 581 349 2
-2 110 -460 239 -1017z m-6310 -8814 c61 -18 116 -62 152 -123 23 -40 27 -58
27 -122 0 -88 -19 -134 -77 -191 -96 -93 -269 -90 -360 7 -71 76 -94 208 -50
290 42 81 148 151 233 153 14 1 48 -6 75 -14z m2900 -793 c126 -65 179 -218
118 -340 -42 -85 -125 -140 -225 -149 -113 -11 -214 67 -255 197 -40 127 37
260 178 306 55 18 134 12 184 -14z m-1591 -1091 c123 -56 190 -219 136 -336
-22 -48 -98 -120 -149 -142 -54 -23 -148 -21 -197 4 -119 62 -179 213 -131
328 29 68 103 133 176 156 45 13 124 9 165 -10z"/>
<path d="M18867 23106 c-708 -202 -1132 -327 -1137 -336 -28 -52 -471 -1163
-467 -1173 6 -17 1356 -1447 1371 -1453 12 -5 1551 649 1570 667 5 5 -30 532
-88 1296 -53 708 -96 1296 -96 1306 0 9 -6 16 -12 16 -7 -1 -521 -146 -1141
-323z"/>
<path d="M8720 23359 c-11 -77 -197 -2616 -192 -2620 11 -10 1556 -669 1567
-669 6 0 247 251 535 557 289 306 598 634 688 729 l163 173 -236 583 c-130
321 -242 588 -248 594 -7 7 -516 155 -1132 329 -616 175 -1126 320 -1132 322
-7 3 -13 4 -13 2z"/>
<path d="M11155 18465 c2 -27 30 -340 60 -695 30 -355 59 -655 63 -668 4 -12
403 -546 887 -1186 794 -1051 881 -1161 887 -1137 8 31 101 2391 95 2398 -3 2
-290 139 -638 304 l-634 299 -363 368 -363 367 6 -50z m1773 -2804 l-3 -391
-393 508 c-217 279 -393 512 -392 517 1 6 178 126 394 267 l391 257 3 -384 c1
-211 1 -559 0 -774z"/>
<path d="M16997 18248 c-86 -90 -250 -257 -364 -371 l-208 -208 -625 -295
c-344 -162 -628 -298 -633 -303 -8 -8 79 -2295 91 -2376 l7 -49 884 1169 c487
644 886 1179 888 1190 8 49 123 1398 120 1402 -2 2 -74 -70 -160 -159z m-1214
-1743 c202 -132 367 -244 367 -248 0 -7 -744 -971 -776 -1007 -12 -12 -14 106
-14 759 l0 773 29 -19 c15 -10 193 -126 394 -258z"/>
<path d="M14260 13810 c-1 -3 -126 -578 -279 -1277 l-277 -1273 589 0 589 0
-5 23 c-3 12 -141 582 -307 1267 -301 1243 -307 1269 -310 1260z"/>
</g>
</svg>
